<?xml version="1.0" encoding="UTF-8"?>
<!DOCTYPE svg PUBLIC "-//W3C//DTD SVG 1.1//EN" "http://www.w3.org/Graphics/SVG/1.1/DTD/svg11.dtd">
<!-- Creator: CorelDRAW X8 -->
<svg xmlns="http://www.w3.org/2000/svg" xml:space="preserve" width="2480px" height="2480px" version="1.1" style="shape-rendering:geometricPrecision; text-rendering:geometricPrecision; image-rendering:optimizeQuality; fill-rule:evenodd; clip-rule:evenodd"
viewBox="0 0 2480 2480"
 xmlns:xlink="http://www.w3.org/1999/xlink">
 <defs>
  <style type="text/css">
   <![CDATA[
    .fil0 {fill:#3F51B5}
    .fil1 {fill:white}
   ]]>
  </style>
   <clipPath id="id0">
    <rect x="-540" y="1416" width="117" height="125"/>
   </clipPath>
 </defs>
 <g id="Capa_x0020_1">
  <metadata id="CorelCorpID_0Corel-Layer"/>
  <path class="fil0" d="M46 1172l0 121c23,253 80,444 229,652 420,583 1281,670 1807,156 530,-518 472,-1369 -100,-1810 -207,-160 -381,-211 -630,-250l-200 0c-40,8 -82,9 -123,17 -376,74 -706,318 -869,669 -31,67 -54,133 -74,205 -33,119 -24,163 -40,240z"/>
  <path class="fil1" d="M1201 196c-579,26 -1024,513 -998,1093 26,580 515,1017 1094,994 574,-22 1020,-522 993,-1093 -26,-575 -514,-1019 -1089,-994z"/>
  <path class="fil0" d="M1934 1293c2,90 -49,229 -97,305 -46,73 -122,162 -195,207l-1 -1131c138,92 189,211 211,220 12,5 59,8 76,10 41,6 130,35 88,-42 -111,-200 -235,-329 -448,-417 -92,-38 -93,-31 -92,34 1,115 -1,231 0,346 0,49 -4,1193 0,1211 8,34 34,19 56,11 172,-61 339,-189 434,-345 48,-78 83,-150 107,-239 14,-48 23,-97 27,-147 2,-26 8,-142 -3,-160 -11,-17 -119,-26 -144,-29 -195,-26 -172,-29 -172,56 0,105 -11,91 73,100 27,3 54,7 80,10z"/>
  <path class="fil0" d="M852 1262l1 543c-90,-62 -162,-145 -214,-240 -41,-74 -6,-73 -150,-51 -47,7 -50,15 -31,59 78,185 208,319 380,418 31,19 133,67 166,67 24,-16 16,-45 16,-73l0 -831c0,-79 8,-69 -114,-62 -115,6 -225,21 -339,30 6,-77 60,-199 104,-263 48,-69 110,-138 181,-185 7,52 -3,121 1,175 3,34 35,24 61,22 126,-7 106,24 106,-161l0 -268c-4,-34 -39,-17 -59,-10 -114,40 -245,122 -325,211 -126,139 -212,285 -237,475 -6,43 -11,129 -6,171 4,34 36,20 58,17 122,-19 283,-39 401,-44z"/>
  <path class="fil0" d="M1211 383c-57,2 -48,16 -47,68l0 1525c-1,128 -18,124 119,119 57,-3 48,-15 47,-70l0 -1526c0,-127 15,-121 -119,-116z"/>
  <g style="clip-path:url(#id0)">
   <image x="-540" y="1416" width="117" height="125" xlink:href="SIG2_Images\SIG2_ImgID1.png"/>
  </g>
 </g>
</svg>
